<svg width="274" height="89" viewBox="0 0 274 89" fill="none" xmlns="http://www.w3.org/2000/svg">
<path d="M264.993 52.9099H240.943C237.563 52.9099 237.433 53.1699 237.433 56.4199C237.433 69.5499 245.103 80.7299 259.013 80.7299C263.303 80.7299 266.943 79.4299 270.973 74.3599C272.273 73.9699 273.183 74.7499 273.313 75.9199C269.023 84.7599 259.663 88.0099 252.903 88.0099C244.453 88.0099 237.823 84.3699 234.053 79.4299C230.153 74.3599 228.593 68.2499 228.593 62.5299C228.593 46.5399 239.123 33.1499 254.723 33.1499C265.903 33.1499 273.183 40.8199 273.183 48.6199C273.183 50.4399 272.923 51.4799 272.663 51.9999C272.273 52.7799 270.453 52.9099 264.993 52.9099ZM239.773 49.0099H249.003C258.623 49.0099 261.483 48.4899 262.523 47.7099C262.913 47.4499 263.303 46.9299 263.303 45.2399C263.303 41.5999 260.833 37.0499 253.293 37.0499C245.623 37.0499 238.993 44.0699 238.863 48.3599C238.863 48.6199 238.863 49.0099 239.773 49.0099Z" fill="#292929"/>
<path d="M208.132 33.1499C211.122 33.1499 216.192 33.7999 219.702 35.3599C220.742 36.2699 221.652 38.3499 221.652 40.5599C221.652 42.8999 220.352 45.3699 218.792 45.3699C218.142 45.3699 217.492 45.1099 216.972 44.4599C214.112 40.9499 209.302 37.5699 203.972 37.5699C194.872 37.5699 186.032 44.7199 186.032 58.4999C186.032 68.6399 193.052 80.7299 206.962 80.7299C214.502 80.7299 218.402 77.3499 221.392 72.9299C222.432 72.6699 223.602 73.5799 223.732 74.7499C219.312 84.3699 209.562 88.0099 202.022 88.0099C195.132 88.0099 188.762 85.7999 184.212 81.3799C179.662 76.9599 176.672 70.5899 176.672 62.1399C176.672 48.0999 186.552 33.1499 208.132 33.1499Z" fill="#292929"/>
<path d="M151.344 71.6298L151.344 48.8798C151.344 43.8098 151.344 43.1598 147.834 40.8198L146.664 40.0398C146.144 39.5198 146.144 38.0898 146.794 37.6998C149.784 36.6598 157.194 33.2798 160.184 31.3298C160.834 31.3298 161.354 31.5898 161.484 32.1098C161.224 36.6598 160.964 42.8998 160.964 48.2298L160.964 71.6298C160.964 80.9898 161.224 82.2898 165.904 82.9398L168.634 83.3298C169.544 83.9798 169.284 86.1898 168.374 86.5798C164.474 86.3198 160.704 86.1898 156.154 86.1898C151.474 86.1898 147.574 86.3198 143.934 86.5798C143.024 86.1898 142.764 83.9798 143.674 83.3298L146.404 82.9398C151.214 82.2898 151.344 80.9898 151.344 71.6298ZM155.634 5.06982C159.534 5.06982 162.134 8.18982 162.134 11.8298C162.134 16.5098 158.884 18.5898 155.244 18.5898C151.214 18.5898 148.614 15.5998 148.614 12.0898C148.614 7.79982 151.734 5.06982 155.634 5.06982Z" fill="#292929"/>
<path d="M107.621 33.1499C122.181 33.1499 134.011 44.0699 134.011 60.0599C134.011 76.3099 122.831 88.0099 106.581 88.0099C91.6307 88.0099 79.9307 77.4799 79.9307 61.2299C79.9307 44.8499 92.2807 33.1499 107.621 33.1499ZM122.831 62.1399C122.831 51.0899 118.411 37.0499 106.061 37.0499C97.4807 37.0499 91.1107 45.2399 91.1107 59.5399C91.1107 71.3699 96.4407 84.1099 107.881 84.1099C119.321 84.1099 122.831 72.1499 122.831 62.1399Z" fill="#292929"/>
<path d="M36.3586 70.59L13.4785 14.17C10.4885 6.89 8.53855 4.16 2.94855 3.51L0.608546 3.25C-0.301454 2.47 -0.171454 0.649999 0.868546 0C4.63855 0.260004 8.79855 0.390003 14.3885 0.390003C20.1085 0.390003 24.6585 0.260004 30.1185 0C31.0285 0.520001 31.2885 2.47 30.3785 3.25L28.4285 3.51C23.4885 4.16 22.4485 4.94001 22.3185 5.98C22.5785 7.28 24.7885 14.3 28.8185 24.18C34.7985 39.26 40.7785 54.21 47.2785 69.03C51.3086 60.45 56.7685 47.06 59.7585 40.17C63.5285 31.33 69.6385 16.64 71.8485 11.05C72.8886 8.32 73.0185 6.89 73.0185 5.98C73.0185 5.07 71.7186 4.03 67.1685 3.51L64.8286 3.25C63.9186 2.47 64.1785 0.520001 65.0885 0C68.7286 0.260004 73.6686 0.390003 78.6086 0.390003C82.8986 0.390003 86.9286 0.260004 91.2186 0C92.1286 0.520001 92.1286 2.60001 91.4786 3.25L87.5785 3.51C84.4585 3.77001 82.5086 5.33 80.8186 8.06001C77.1786 14.17 72.1085 24.7 66.2586 37.96L59.2385 53.95C54.0385 65.91 47.9285 80.99 45.7185 87.88C45.3285 88.14 44.8085 88.27 44.2885 88.27C43.6385 88.27 42.9885 88.14 42.3386 87.88C40.9085 82.42 38.5685 76.05 36.3586 70.59Z" fill="#292929"/>
</svg>
