<svg width="215" height="68" viewBox="0 0 215 68" fill="none" xmlns="http://www.w3.org/2000/svg">
<path d="M214.168 31.1001H202.868C201.168 31.1001 201.068 31.4001 201.068 33.5001V52.2001C201.068 58.0001 201.768 63.3001 208.368 63.3001C209.368 63.3001 210.268 63.1001 211.068 62.8001C211.968 62.5001 213.268 61.4001 213.568 61.4001C214.368 61.4001 214.768 62.5001 214.568 63.1001C212.768 65.2001 209.168 67.7001 204.068 67.7001C195.468 67.7001 193.668 62.9001 193.668 56.9001V34.0001C193.668 31.3001 193.568 31.1001 191.568 31.1001H188.768C188.168 30.7001 188.068 29.6001 188.468 29.0001C191.368 28.1001 193.868 26.8001 194.868 25.9001C196.168 24.7001 198.068 22.0001 199.068 20.0001C199.568 19.8001 200.768 19.8001 201.168 20.5001V25.0001C201.168 26.8001 201.268 26.9001 202.968 26.9001L214.068 26.9001C215.268 27.8001 215.068 30.5001 214.168 31.1001Z" fill="#292929"/>
<path d="M168.984 55.1001V37.6001C168.984 33.7001 168.984 33.2001 166.284 31.4001L165.384 30.8001C164.984 30.4001 164.984 29.3001 165.484 29.0001C167.784 28.2001 173.484 25.6001 175.784 24.1001C176.284 24.1001 176.684 24.3001 176.784 24.7001C176.584 28.2001 176.384 33.0001 176.384 37.1001V55.1001C176.384 62.3001 176.584 63.3001 180.184 63.8001L182.284 64.1002C182.984 64.6002 182.784 66.3002 182.084 66.6002C179.084 66.4002 176.184 66.3001 172.684 66.3001C169.084 66.3001 166.084 66.4002 163.284 66.6002C162.584 66.3002 162.384 64.6002 163.084 64.1002L165.184 63.8001C168.884 63.3001 168.984 62.3001 168.984 55.1001ZM172.284 3.90015C175.284 3.90015 177.284 6.30015 177.284 9.10015C177.284 12.7001 174.784 14.3001 171.984 14.3001C168.884 14.3001 166.884 12.0001 166.884 9.30014C166.884 6.00014 169.284 3.90015 172.284 3.90015Z" fill="#292929"/>
<path d="M135.78 55.1001V37.6001C135.78 33.7001 135.78 33.2001 133.08 31.4001L132.18 30.8001C131.78 30.4001 131.78 29.3001 132.28 29.0001C134.58 28.2001 139.88 25.6001 142.38 24.1001C142.88 24.2001 143.18 24.4001 143.18 24.8001V30.6001C143.18 31.1001 143.28 31.4001 143.48 31.5001C146.98 28.6001 150.78 25.5001 154.48 25.5001C156.98 25.5001 158.98 27.1001 158.98 29.5001C158.98 32.8001 156.28 34.1001 154.68 34.1001C153.68 34.1001 153.18 33.8001 152.48 33.4001C150.98 32.4001 149.48 31.8001 148.08 31.8001C146.48 31.8001 145.28 32.7001 144.48 33.8001C143.48 35.2001 143.18 38.1001 143.18 41.5001V55.1001C143.18 62.3001 143.38 63.5001 147.18 63.8001L150.78 64.1001C151.48 64.6001 151.28 66.3001 150.58 66.6001C145.88 66.4001 142.98 66.3001 139.48 66.3001C135.88 66.3001 132.88 66.4001 130.28 66.6001C129.58 66.3001 129.38 64.6001 130.08 64.1001L131.98 63.8001C135.68 63.2001 135.78 62.3001 135.78 55.1001Z" fill="#292929"/>
<path d="M117.832 40.7H99.332C96.732 40.7 96.632 40.9 96.632 43.4C96.632 53.5 102.532 62.1 113.232 62.1C116.532 62.1 119.332 61.1 122.432 57.2C123.432 56.9 124.132 57.5 124.232 58.4C120.932 65.2 113.732 67.7 108.532 67.7C102.032 67.7 96.932 64.9 94.032 61.1C91.032 57.2 89.832 52.5 89.832 48.1C89.832 35.8 97.932 25.5 109.932 25.5C118.532 25.5 124.132 31.4 124.132 37.4C124.132 38.8 123.932 39.6 123.732 40C123.432 40.6 122.032 40.7 117.832 40.7ZM98.432 37.7H105.532C112.932 37.7 115.132 37.3 115.932 36.7C116.232 36.5 116.532 36.1 116.532 34.8C116.532 32 114.632 28.5 108.832 28.5C102.932 28.5 97.832 33.9 97.732 37.2C97.732 37.4 97.732 37.7 98.432 37.7Z" fill="#292929"/>
<path d="M25.0623 16.5L36.4623 39.6C38.7623 44.3 40.9623 48.9 43.3623 53.3H43.5623C46.2623 48.6 48.7623 43.4 51.2623 38.3L60.6623 19.2C65.1623 10.1 68.0623 4.6 68.2623 0C71.6623 0.300002 73.7623 0.300002 75.7623 0.300002C78.2623 0.300002 81.5623 0.200003 84.6623 0C85.2623 0.400001 85.2623 2.1 84.7623 2.5L82.6623 2.7C76.3623 3.3 75.5623 5.20001 75.6623 12.2C75.8623 22.8 75.9623 41.3 76.7623 55.7C77.0623 60.7 76.9623 63.4 81.6623 63.8L84.8623 64.1C85.4623 64.7 85.3623 66.2 84.6623 66.6C80.5623 66.4 76.4623 66.3 72.8623 66.3C69.3623 66.3 64.8623 66.4 60.7623 66.6C60.0623 66.1 59.9623 64.7 60.5623 64.1L63.4623 63.8C68.3623 63.3 68.3623 61.7 68.3623 55.3L68.0623 13.6H67.8623C67.1623 14.7 63.3623 22.7 61.3623 26.6L52.4623 44.1C47.9623 52.9 43.4623 62.3 41.6623 66.9C41.4623 67.2 41.0623 67.3 40.6623 67.3C40.4623 67.3 39.9623 67.2 39.7623 66.9C38.0623 61.6 33.2623 51.8 30.9623 46.9L21.9623 27.6C19.8623 23 17.7623 17.8 15.5623 13.2H15.3623C14.9623 19.4 14.6623 25.2 14.3623 31C14.0623 37.1 13.6623 46 13.6623 54.5C13.6623 61.9 14.2623 63.5 18.1623 63.8L21.9623 64.1C22.6623 64.7 22.5623 66.3 21.8623 66.6C18.4623 66.4 14.5623 66.3 10.7623 66.3C7.56228 66.3 3.96228 66.4 0.562278 66.6C-0.0377225 66.1 -0.237722 64.6 0.362278 64.1L2.56228 63.8C6.76228 63.2 8.16228 62.6 8.76228 55.6C9.36228 49 9.86228 43.5 10.4623 33.6C10.9623 25.3 11.3623 16.8 11.5623 11.3C11.7623 5 10.9623 3.5 4.86228 2.7L3.26228 2.5C2.76228 1.9 2.86228 0.400001 3.66228 0C6.66228 0.200003 9.06228 0.300002 11.5623 0.300002C13.8623 0.300002 16.5623 0.300002 19.8623 0C19.4623 3.9 21.9623 10.1 25.0623 16.5Z" fill="#292929"/>
</svg>
