<svg width="1186" height="1412" viewBox="0 0 1186 1412" fill="none" xmlns="http://www.w3.org/2000/svg">
<path fill-rule="evenodd" clip-rule="evenodd" d="M379.921 51.8267C316.361 34.6609 265.888 17.8446 237.944 0.927721L238.462 0.0722656C266.268 16.9054 316.607 33.6915 380.182 50.8613C443.738 68.0259 520.456 85.5579 600.978 103.9L606.327 105.118C765.893 141.462 939.538 181.013 1054.7 227.175C1083.82 238.846 1109.21 250.945 1129.7 263.529C1150.18 276.109 1165.79 289.193 1175.32 302.846C1184.85 316.513 1188.29 330.767 1184.38 345.628C1180.48 360.463 1169.28 375.825 1149.7 391.779C1110.55 423.683 1037.71 458.115 921.875 495.535C806.028 532.961 647.126 573.391 435.805 617.268C402.072 624.272 379.752 631.739 366.946 639.667C360.544 643.631 356.571 647.679 354.711 651.792C352.861 655.879 353.07 660.092 355.162 664.477C357.263 668.882 361.265 673.455 366.99 678.195C372.71 682.931 380.121 687.809 389.003 692.831C406.767 702.875 430.367 713.469 457.978 724.637C493.331 738.936 535.221 754.161 579.807 770.366C604.872 779.476 630.789 788.895 656.876 798.634C729.349 825.69 803.11 855.204 863.433 887.356C893.595 903.433 920.41 920.176 942.029 937.609C963.646 955.04 980.093 973.182 989.487 992.063C998.888 1010.96 1001.22 1030.59 994.614 1050.95C988.011 1071.29 972.497 1092.32 946.302 1114.05C893.918 1157.51 798.678 1203.93 645.939 1253.51C493.185 1303.1 282.873 1355.86 0.300291 1411.99L0.105469 1411.01C282.658 1354.89 492.928 1302.13 645.63 1252.56C798.345 1202.99 893.433 1156.61 945.663 1113.28C971.774 1091.62 987.139 1070.74 993.663 1050.64C1000.18 1030.56 997.89 1011.2 988.592 992.508C979.286 973.805 962.958 955.771 941.402 938.388C919.848 921.007 893.093 904.298 862.963 888.239C802.702 856.119 728.994 826.625 656.526 799.571C630.46 789.84 604.553 780.424 579.491 771.315C534.891 755.105 492.971 739.869 457.603 725.564C429.981 714.391 406.332 703.778 388.511 693.701C379.6 688.663 372.134 683.752 366.352 678.965C360.575 674.182 356.45 669.499 354.259 664.908C352.06 660.296 351.811 655.773 353.799 651.379C355.776 647.011 359.935 642.832 366.419 638.817C379.385 630.79 401.853 623.296 435.601 616.289C646.905 572.416 805.768 531.994 921.568 494.584C1037.38 457.168 1110.07 422.782 1149.07 391.003C1168.56 375.116 1179.59 359.921 1183.41 345.373C1187.23 330.851 1183.9 316.895 1174.5 303.418C1165.09 289.925 1149.6 276.928 1129.18 264.381C1108.75 251.837 1083.42 239.762 1054.33 228.103C939.24 181.971 765.655 142.434 606.042 106.079L600.756 104.875C520.239 86.5342 443.5 68.9976 379.921 51.8267Z" fill="#292929"/>
</svg>
