<svg width="125" height="259" viewBox="0 0 125 259" fill="none" xmlns="http://www.w3.org/2000/svg">
<path fill-rule="evenodd" clip-rule="evenodd" d="M4.84064 165.705C14.6203 121.3 44.0722 64.9163 123.389 0.611816L124.019 1.3886C44.8363 65.5841 15.5379 121.783 5.81724 165.92C0.955709 187.994 0.985975 207.073 2.13982 222.659C2.6128 229.047 3.27415 234.845 3.86551 240.03C3.99582 241.172 4.12274 242.285 4.24349 243.368C4.91076 249.35 5.39265 254.436 5.20303 258.523L4.2041 258.477C4.38948 254.481 3.91826 249.473 3.24965 243.478C3.12935 242.4 3.00276 241.29 2.87265 240.15C2.28117 234.964 1.61714 229.143 1.14255 222.732C-0.0159515 207.084 -0.047996 187.902 4.84064 165.705Z" fill="#292929"/>
</svg>
